<?xml version="1.0" encoding="UTF-8"?>
<svg width="248px" height="248px" viewBox="0 0 248 248" version="1.1" xmlns="http://www.w3.org/2000/svg" xmlns:xlink="http://www.w3.org/1999/xlink">
    <!-- Generator: Sketch 52.2 (67145) - http://www.bohemiancoding.com/sketch -->
    <title>download-btn</title>
    <desc>Created with Sketch.</desc>
    <g id="Page-1" stroke="none" stroke-width="1" fill="none" fill-rule="evenodd">
        <g id="Drop-view" transform="translate(-598.000000, -416.000000)">
            <g id="Box" transform="translate(519.000000, 298.000000)">
                <g id="download-btn" transform="translate(81.000000, 120.000000)">
                    <path d="M117.871287,163 L125.740924,163 C127.950063,163 129.740924,161.209139 129.740924,159 L129.740924,117.940869 L141.340281,117.940869 C142.444851,117.940869 143.340281,117.045439 143.340281,115.940869 C143.340281,115.557931 143.230345,115.183042 143.023535,114.860751 L123.589397,84.5746336 C122.992864,83.644998 121.75566,83.374965 120.826024,83.9714979 C120.59362,84.1206284 120.394615,84.3162695 120.241544,84.5460983 L100.070422,114.832216 C99.4581292,115.751548 99.707034,116.993175 100.626366,117.605468 C100.954745,117.824174 101.340476,117.940869 101.73502,117.940869 L113.871287,117.940869 L113.871287,159 C113.871287,161.209139 115.662148,163 117.871287,163 Z" id="Path-4" fill="#D8D8D8"></path>
                    <path d="M122,244 C189.378739,244 244,189.378739 244,122 C244,54.6212605 189.378739,0 122,0 C54.6212605,0 0,54.6212605 0,122 C0,189.378739 54.6212605,244 122,244 Z" id="Drop-zone" stroke="#EAE5E5" stroke-width="3" stroke-linecap="round" stroke-linejoin="round" stroke-dasharray="22,16"></path>
                </g>
            </g>
        </g>
    </g>
</svg>