<?xml version="1.0" encoding="UTF-8"?>
<svg width="32px" height="37px" viewBox="0 0 32 37" version="1.1" xmlns="http://www.w3.org/2000/svg" xmlns:xlink="http://www.w3.org/1999/xlink">
    <!-- Generator: Sketch 52.2 (67145) - http://www.bohemiancoding.com/sketch -->
    <title>pdf-file</title>
    <desc>Created with Sketch.</desc>
    <g id="Page-1" stroke="none" stroke-width="1" fill="none" fill-rule="evenodd">
        <g id="Uploading-view" transform="translate(-544.000000, -394.000000)">
            <g id="Box" transform="translate(512.000000, 315.000000)">
                <g id="Item" transform="translate(32.000000, 78.000000)">
                    <g id="pdf-file" transform="translate(0.000000, 1.000000)">
                        <g id="file" transform="translate(0.423077, 0.000000)">
                            <path d="M2.84615385,0 L26.6154396,0 L31.3076923,6.58789627 L31.3076923,34.1538462 C31.3076923,35.7257335 30.0334258,37 28.4615385,37 L2.84615385,37 C1.27426648,37 6.36589893e-16,35.7257335 4.4408921e-16,34.1538462 L-4.4408921e-16,2.84615385 C-6.36589893e-16,1.27426648 1.27426648,2.88751025e-16 2.84615385,0 Z" id="Rectangle" fill="#D8D8D8"></path>
                            <path d="M26.8400693,0 C25.4651175,2.37562516 25.2479081,4.33757119 26.188441,5.88583809 C27.128974,7.43410499 28.8353911,7.52016793 31.3076923,6.14402691 L26.8400693,0 Z" id="Path-2" fill="#918C8C"></path>
                        </g>
                    </g>
                </g>
            </g>
        </g>
    </g>
</svg>