<?xml version="1.0" encoding="UTF-8"?>
<svg width="115px" height="121px" viewBox="0 0 115 121" version="1.1" xmlns="http://www.w3.org/2000/svg" xmlns:xlink="http://www.w3.org/1999/xlink">
    <!-- Generator: Sketch 52.2 (67145) - http://www.bohemiancoding.com/sketch -->
    <title>emoji-board-03</title>
    <desc>Created with Sketch.</desc>
    <g id="Page-1" stroke="none" stroke-width="1" fill="none" fill-rule="evenodd">
        <g id="Download-view" transform="translate(-647.000000, -380.000000)">
            <g id="emoji-board-03" transform="translate(647.000000, 382.000000)">
                <ellipse id="_Path_" fill="#F3C137" cx="57.5062387" cy="61.7576829" rx="57.3960217" ry="57.2195122"></ellipse>
                <ellipse id="_Path_2" fill="#F9D572" cx="57.5062387" cy="59.269878" rx="51.3652803" ry="51.2073171"></ellipse>
                <g id="_Group_2" transform="translate(66.754069, 28.402439)">
                    <ellipse id="_Path_3" fill="#E9EDF0" cx="14.351085" cy="14.2737805" rx="14.3011754" ry="14.2571951"></ellipse>
                    <ellipse id="_Path_4" fill="#2F3847" cx="14.351085" cy="14.2737805" rx="4.26934901" ry="4.25621951"></ellipse>
                </g>
                <g id="_Group_3" transform="translate(19.547920, 21.146341)">
                    <ellipse id="_Path_5" fill="#E9EDF0" cx="21.4548825" cy="21.529878" rx="21.3966546" ry="21.3308537"></ellipse>
                    <ellipse id="_Path_6" fill="#2F3847" cx="21.4548825" cy="21.529878" rx="6.3863472" ry="6.36670732"></ellipse>
                </g>
                <ellipse id="_Path_7" fill="#2F3847" cx="57.5062387" cy="97.7271951" rx="6.77106691" ry="7.77439024"></ellipse>
                <path d="M69.1850814,22.9893902 C71.8337102,19.0041589 76.3097976,16.607829 81.1051537,16.607829 C85.9005098,16.607829 90.3765972,19.0041589 93.025226,22.9893902" id="_Path_8" stroke="#2F3847" stroke-width="3.31200012" stroke-linecap="round" stroke-linejoin="round"></path>
                <path d="M60.8917722,13.5606098 C57.6510266,5.43929609 49.7701122,0.10925907 41.0028029,0.10925907 C32.2354936,0.10925907 24.3545792,5.43929609 21.1138336,13.5606098" id="_Path_9" stroke="#2F3847" stroke-width="3.31200012" stroke-linecap="round" stroke-linejoin="round"></path>
            </g>
        </g>
    </g>
</svg>