<?xml version="1.0" encoding="UTF-8"?>
<svg width="40px" height="40px" viewBox="0 0 40 40" version="1.1" xmlns="http://www.w3.org/2000/svg" xmlns:xlink="http://www.w3.org/1999/xlink">
    <!-- Generator: Sketch 52.2 (67145) - http://www.bohemiancoding.com/sketch -->
    <title>down-arrow (1)</title>
    <desc>Created with Sketch.</desc>
    <g id="Page-1" stroke="none" stroke-width="1" fill="none" fill-rule="evenodd">
        <g id="Download-view" transform="translate(-548.000000, -522.000000)" fill="#5BA3D4">
            <g id="down-arrow-(1)" transform="translate(548.000000, 522.000000)">
                <path d="M39.9511202,19.9755601 C39.9511202,8.96130346 30.9898167,0 19.9755601,0 C8.96130346,0 0,8.96130346 0,19.9755601 C0,30.9898167 8.96130346,39.9511202 19.9755601,39.9511202 C30.9898167,39.9511202 39.9511202,30.9898167 39.9511202,19.9755601 Z M1.99592668,19.9755601 C1.99592668,10.0610998 10.0610998,1.99592668 19.9755601,1.99592668 C29.8900204,1.99592668 37.9551935,10.0610998 37.9551935,19.9755601 C37.9551935,29.8900204 29.8900204,37.9551935 19.9755601,37.9551935 C10.0610998,37.9551935 1.99592668,29.8900204 1.99592668,19.9755601 Z" id="Shape" fill-rule="nonzero"></path>
                <path d="M20.6843177,29.3604888 L26.2973523,23.7474542 C26.688391,23.3564155 26.688391,22.7291242 26.2973523,22.3380855 C25.9063136,21.9470468 25.2790224,21.9470468 24.8879837,22.3380855 L20.9775967,26.2484725 L20.9775967,11.299389 C20.9775967,10.7454175 20.5295316,10.2973523 19.9755601,10.2973523 C19.4215886,10.2973523 18.9735234,10.7454175 18.9735234,11.299389 L18.9735234,26.2403259 L15.0631365,22.3299389 C14.6720978,21.9389002 14.0448065,21.9389002 13.6537678,22.3299389 C13.2627291,22.7209776 13.2627291,23.3482688 13.6537678,23.7393075 L19.2668024,29.3523422 C19.4623218,29.5478615 19.7148676,29.6456212 19.9755601,29.6456212 C20.2362525,29.6456212 20.4887984,29.5560081 20.6843177,29.3604888 Z" id="Path"></path>
            </g>
        </g>
    </g>
</svg>