<?xml version="1.0" encoding="UTF-8"?>
<svg width="9px" height="16px" viewBox="0 0 9 16" version="1.1" xmlns="http://www.w3.org/2000/svg" xmlns:xlink="http://www.w3.org/1999/xlink">
    <!-- Generator: Sketch 52.2 (67145) - http://www.bohemiancoding.com/sketch -->
    <title>Path 4</title>
    <desc>Created with Sketch.</desc>
    <g id="Page-1" stroke="none" stroke-width="1" fill="none" fill-rule="evenodd">
        <g id="Download-view" transform="translate(-885.000000, -388.000000)" fill="#D8D8D8">
            <g id="Box" transform="translate(517.000000, 298.000000)">
                <g id="Item" transform="translate(32.000000, 84.000000)">
                    <path d="M339.839183,22 L341.278049,22 C341.719877,22 342.078049,21.6418278 342.078049,21.2 L342.078049,13.099431 L344.2801,13.099431 C344.501014,13.099431 344.6801,12.9203449 344.6801,12.699431 C344.6801,12.6247511 344.659194,12.5515624 344.619748,12.4881503 L340.917097,6.53589859 C340.80041,6.34831643 340.553751,6.29084464 340.366169,6.40753176 C340.316037,6.43871682 340.27343,6.48061282 340.241406,6.53021297 L336.398343,12.4824647 C336.278516,12.6680567 336.331829,12.9156479 336.517421,13.0354751 C336.582084,13.0772243 336.657418,13.099431 336.734387,13.099431 L339.039183,13.099431 L339.039183,21.2 C339.039183,21.6418278 339.397355,22 339.839183,22 Z" id="Path-4" transform="translate(340.500000, 14.000000) scale(1, -1) translate(-340.500000, -14.000000) "></path>
                </g>
            </g>
        </g>
    </g>
</svg>